<?xml version="1.0" encoding="utf-8"?>
<!-- Generator: Adobe Illustrator 15.0.0, SVG Export Plug-In . SVG Version: 6.00 Build 0)  -->
<!DOCTYPE svg PUBLIC "-//W3C//DTD SVG 1.1//EN" "http://www.w3.org/Graphics/SVG/1.1/DTD/svg11.dtd">
<svg version="1.1" id="Layer_1" xmlns="http://www.w3.org/2000/svg" xmlns:xlink="http://www.w3.org/1999/xlink" x="0px" y="0px"
	 width="400px" height="100px" viewBox="0 0 400 100" enable-background="new 0 0 400 100" xml:space="preserve">
<g>
	<path fill="#454545" d="M61.435,73.748V34.741h8.948c4.582,0,8.148,1.143,10.701,3.426c2.552,2.284,3.829,5.476,3.829,9.577
		c0,3.874-1.202,7.059-3.604,9.547c-2.401,2.491-5.463,3.735-9.182,3.735c-1.646,0-3.468-0.365-5.468-1.095v13.816H61.435z
		 M70.273,39.515h-3.615V55.41c1.569,0.805,3.213,1.208,4.932,1.208c2.391,0,4.348-0.833,5.871-2.5
		c1.522-1.666,2.284-3.81,2.284-6.432c0-1.685-0.36-3.173-1.079-4.464c-0.719-1.292-1.7-2.233-2.941-2.822
		C74.48,39.81,72.664,39.515,70.273,39.515z"/>
</g>
<g>
	<path fill="#454545" d="M90.416,21.345h5.111v16.794c2.134-2.603,4.783-3.904,7.947-3.904c1.722,0,3.267,0.431,4.634,1.292
		c1.366,0.861,2.382,2.05,3.047,3.567c0.665,1.516,0.997,3.772,0.997,6.768v14.715h-5.111V44.598c0-1.891-0.464-3.412-1.39-4.563
		c-0.927-1.152-2.148-1.727-3.665-1.727c-1.123,0-2.182,0.29-3.173,0.871c-0.993,0.581-2.088,1.544-3.286,2.893v18.506h-5.111
		V21.345z"/>
</g>
<g>
	<path fill="#454545" d="M118.948,73.748V34.741h8.948c4.582,0,8.148,1.143,10.701,3.426c2.552,2.284,3.829,5.476,3.829,9.577
		c0,3.874-1.201,7.059-3.603,9.547c-2.402,2.491-5.463,3.735-9.183,3.735c-1.646,0-3.468-0.365-5.468-1.095v13.816H118.948z
		 M127.787,39.515h-3.615V55.41c1.569,0.805,3.212,1.208,4.932,1.208c2.391,0,4.348-0.833,5.871-2.5
		c1.522-1.666,2.284-3.81,2.284-6.432c0-1.685-0.36-3.173-1.079-4.464c-0.719-1.292-1.7-2.233-2.942-2.822
		C131.995,39.81,130.178,39.515,127.787,39.515z"/>
</g>
<g>
	<path d="M145.627,34.741H167.7l-13.682,21.063H167.7v4.773h-22.635l13.58-21.062h-13.019V34.741z"/>
</g>
<g>
	<path d="M194.042,48.108h-18.169c0.13,2.472,0.959,4.438,2.485,5.897c1.525,1.46,3.497,2.19,5.912,2.19
		c3.37,0,6.478-1.048,9.324-3.145v4.998c-1.573,1.049-3.131,1.797-4.676,2.247c-1.545,0.449-3.356,0.674-5.435,0.674
		c-2.845,0-5.148-0.59-6.908-1.77c-1.76-1.18-3.168-2.767-4.226-4.76c-1.059-1.995-1.587-4.301-1.587-6.923
		c0-3.931,1.114-7.128,3.342-9.59c2.228-2.462,5.12-3.693,8.678-3.693c3.426,0,6.159,1.199,8.2,3.595
		c2.041,2.396,3.061,5.607,3.061,9.633V48.108z M175.985,45.047h13.002c-0.132-2.041-0.74-3.613-1.826-4.718
		c-1.086-1.104-2.546-1.657-4.381-1.657c-1.835,0-3.338,0.553-4.507,1.657C177.103,41.434,176.34,43.007,175.985,45.047z"/>
</g>
<g>
	<path d="M204.686,34.741v3.286c2.283-2.528,4.877-3.792,7.778-3.792c1.61,0,3.108,0.417,4.493,1.25
		c1.386,0.833,2.439,1.976,3.16,3.426c0.721,1.451,1.08,3.749,1.08,6.894v14.771h-5.11V45.862c0-2.64-0.403-4.526-1.208-5.659
		c-0.805-1.132-2.152-1.699-4.043-1.699c-2.416,0-4.466,1.207-6.15,3.623v18.45h-5.225V34.741H204.686z"/>
</g>
<g>
	<path d="M228.921,34.741v-1.544c0-4.156,0.885-7.254,2.653-9.295c1.77-2.041,3.891-3.062,6.361-3.062
		c1.067,0,2.331,0.168,3.791,0.505v4.999c-0.824-0.299-1.61-0.449-2.359-0.449c-2.003,0-3.394,0.533-4.17,1.601
		c-0.777,1.067-1.166,2.968-1.166,5.701v1.544h4.606v4.606h-4.606v21.23h-5.11v-21.23h-3.707v-4.606H228.921z"/>
</g>
<g>
	<path d="M254.505,34.685c3.931,0,7.197,1.269,9.801,3.805c2.602,2.537,3.903,5.725,3.903,9.562c0,3.727-1.32,6.82-3.96,9.281
		c-2.64,2.462-5.964,3.693-9.969,3.693c-3.876,0-7.115-1.249-9.718-3.749c-2.603-2.499-3.903-5.62-3.903-9.366
		c0-3.781,1.316-6.931,3.945-9.449C247.235,35.944,250.534,34.685,254.505,34.685z M254.223,39.291
		c-2.453,0-4.464,0.805-6.036,2.415c-1.574,1.61-2.36,3.66-2.36,6.15c0,2.472,0.805,4.489,2.416,6.051
		c1.609,1.564,3.679,2.347,6.205,2.347c2.51,0,4.564-0.791,6.164-2.373c1.603-1.583,2.401-3.609,2.401-6.08
		c0-2.453-0.833-4.484-2.499-6.094S256.751,39.291,254.223,39.291z"/>
</g>
<g>
	<path d="M273.993,21.345h5.111v39.232h-5.111V21.345z"/>
</g>
<g>
	<rect x="286.604" y="34.741" width="5.11" height="25.836"/>
</g>
<g>
	<path d="M311.457,34.685c3.932,0,7.198,1.269,9.801,3.805c2.602,2.537,3.903,5.725,3.903,9.562c0,3.727-1.32,6.82-3.96,9.281
		c-2.64,2.462-5.963,3.693-9.97,3.693c-3.875,0-7.114-1.249-9.717-3.749c-2.603-2.499-3.903-5.62-3.903-9.366
		c0-3.781,1.315-6.931,3.945-9.449C304.188,35.944,307.486,34.685,311.457,34.685z M311.176,39.291
		c-2.454,0-4.466,0.805-6.038,2.415c-1.573,1.61-2.359,3.66-2.359,6.15c0,2.472,0.805,4.489,2.416,6.051
		c1.609,1.564,3.678,2.347,6.205,2.347c2.509,0,4.564-0.791,6.164-2.373c1.602-1.583,2.402-3.609,2.402-6.08
		c0-2.453-0.834-4.484-2.5-6.094C315.799,40.096,313.703,39.291,311.176,39.291z"/>
</g>
<text transform="matrix(1 0 0 1 129.6484 74.6523)" fill="#575757" font-family="'GillSans-Light'" font-size="13.8033" letter-spacing="1">php wrapper for Zenfolio API</text>
<rect x="51" y="6" opacity="0.16" fill="#FFFFFF" width="93.667" height="42"/>
<rect x="144.667" y="6" opacity="0.05" fill="#FFFFFF" width="184.3" height="42"/>
<g>
	<path fill="#C47829" d="M289.138,24.392c0.697,0,1.293,0.241,1.791,0.721c0.495,0.481,0.743,1.07,0.743,1.768
		c0,0.682-0.248,1.271-0.743,1.767c-0.498,0.497-1.094,0.744-1.791,0.744c-0.65,0-1.226-0.251-1.721-0.756
		c-0.496-0.503-0.745-1.088-0.745-1.755c0-0.651,0.249-1.229,0.745-1.732C287.912,24.644,288.487,24.392,289.138,24.392z"/>
</g>
<g>
	<path fill="#C47829" d="M289.117,31.418c-1.185,0-2.237-0.46-3.128-1.367c-0.892-0.904-1.344-1.974-1.344-3.178
		c0-1.179,0.452-2.235,1.344-3.141c0.893-0.906,1.944-1.366,3.128-1.366c1.252,0,2.339,0.438,3.23,1.302
		c0.896,0.869,1.35,1.947,1.35,3.205c0,1.231-0.452,2.308-1.344,3.2C291.461,30.965,290.372,31.418,289.117,31.418z M289.117,23.366
		c-0.918,0-1.708,0.349-2.415,1.068c-0.711,0.722-1.057,1.52-1.057,2.439c0,0.946,0.346,1.756,1.057,2.477
		c0.706,0.719,1.496,1.068,2.415,1.068c0.994,0,1.821-0.344,2.529-1.052c0.707-0.708,1.051-1.523,1.051-2.493
		c0-0.991-0.342-1.805-1.046-2.487C290.943,23.699,290.114,23.366,289.117,23.366z"/>
</g>
<rect x="282" y="7.333" opacity="0.29" fill="#FFFFFF" width="14.667" height="19.667"/>
</svg>
